<svg width="24" height="24" viewBox="0 0 24 24" fill="none" xmlns="http://www.w3.org/2000/svg">
<path fill-rule="evenodd" clip-rule="evenodd" d="M7 1C7.55228 1 8 1.44772 8 2V3H16V2C16 1.44772 16.4477 1 17 1C17.5523 1 18 1.44772 18 2V3H19C20.6569 3 22 4.34315 22 6V20C22 21.6569 20.6569 23 19 23H5C3.34315 23 2 21.6569 2 20V6C2 4.34315 3.34315 3 5 3H6V2C6 1.44772 6.44772 1 7 1ZM19 8H5V20H19V8ZM16 5V6C16 6.55228 16.4477 7 17 7C17.5523 7 18 6.55228 18 6V5H19C19.5523 5 20 5.44772 20 6V6H4V6C4 5.44772 4.44772 5 5 5H6V6C6 6.55228 6.44772 7 7 7C7.55228 7 8 6.55228 8 6V5H16Z" fill="#9CA3AF"/>
<circle cx="12" cy="14" r="5" fill="none" stroke="#9CA3AF" stroke-width="1.5"/>
<path d="M12 11V14L14 16" stroke="#9CA3AF" stroke-width="1.5" stroke-linecap="round" stroke-linejoin="round"/>
</svg>